<svg viewBox="0 0 160 160" version="1.1" xmlns="http://www.w3.org/2000/svg">
  <g id="#efefefff"/>
  <g id="#0a0a0aff" transform="matrix(0.400968, 0, 0, 0.444541, -20.125116, -27.731064)">
    <path opacity="1.00" d=" M 286.34 134.47 C 290.60 132.80 294.90 133.88 297.06 137.79 C 286.53 139.03 276.34 144.42 270.32 153.27 C 260.08 167.28 254.90 184.10 247.71 199.71 C 240.51 215.43 230.62 230.15 217.82 241.81 C 214.44 245.26 209.56 246.70 206.20 250.15 C 214.91 271.21 217.44 294.10 221.50 316.35 C 224.59 328.04 225.70 340.84 233.31 350.72 C 237.41 357.29 245.26 361.28 252.99 361.12 C 254.13 365.90 248.15 365.34 245.06 365.38 C 229.73 366.07 215.76 355.19 211.33 340.72 C 202.69 312.53 204.77 282.54 197.81 254.03 C 195.53 253.71 193.43 254.72 191.30 255.34 C 182.78 257.53 173.96 258.20 165.18 258.11 C 160.84 281.36 155.68 305.34 142.29 325.28 C 133.56 338.10 118.59 346.64 103.02 347.28 C 95.99 348.01 88.72 347.89 82.13 344.83 C 71.62 341.72 64.37 332.44 61.76 322.10 C 58.47 307.96 63.52 293.34 72.21 282.20 C 79.35 274.73 89.11 268.57 99.96 270.03 C 101.65 270.77 104.48 271.45 104.02 273.85 C 94.66 274.40 85.25 277.79 78.68 284.68 C 69.39 294.41 65.24 308.78 68.14 321.93 C 70.19 329.16 74.91 335.97 81.99 338.99 C 95.68 343.87 112.42 340.30 121.66 328.68 C 139.11 308.37 143.62 281.27 149.97 256.13 C 140.61 252.73 132.84 243.65 134.33 233.28 C 137.17 223.10 147.83 217.57 157.92 217.88 C 160.92 208.32 161.67 198.17 166.05 189.05 C 151.03 188.97 136.00 188.93 120.98 189.05 C 102.93 190.86 87.84 206.78 86.34 224.70 C 86.54 232.99 88.76 243.03 96.76 247.22 C 99.00 248.69 104.29 247.73 102.91 251.83 C 97.86 255.78 90.03 254.71 85.22 250.76 C 76.21 243.65 74.79 230.86 76.36 220.28 C 80.10 205.29 90.44 191.74 105.29 186.34 C 125.53 180.08 147.08 184.24 167.88 182.93 C 171.05 176.94 174.47 171.04 178.88 165.88 C 184.19 161.40 190.69 157.40 197.95 158.01 C 201.03 158.44 203.67 165.51 196.32 162.39 C 187.60 165.63 181.78 174.27 179.97 183.04 C 189.77 181.49 199.40 177.51 206.92 170.91 C 210.49 164.63 216.67 158.89 216.01 150.99 C 216.48 148.04 215.13 145.07 212.76 143.31 C 211.44 142.94 209.20 143.24 210.18 141.20 C 212.87 137.23 218.99 137.66 221.72 141.25 C 225.44 151.58 221.55 162.74 215.07 171.04 C 205.27 181.70 191.45 187.69 177.14 189.18 C 174.79 198.99 172.98 208.93 171.06 218.84 C 182.84 221.75 193.48 228.74 200.21 238.86 C 203.60 239.14 205.07 234.31 207.77 232.77 C 221.99 217.98 232.11 199.75 241.74 181.76 C 250.32 168.02 257.70 152.97 270.37 142.41 C 275.18 138.92 280.34 135.36 286.34 134.47 M 155.27 223.31 C 145.51 223.21 136.93 234.43 142.78 243.25 C 145.10 245.25 148.68 251.77 151.72 247.72 C 152.83 239.46 155.98 231.51 156.06 223.14 L 155.27 223.31 M 170.13 224.98 C 168.70 233.98 167.29 242.97 166.05 252.00 C 175.65 252.32 185.64 250.00 193.72 244.70 C 190.04 234.78 180.68 226.51 170.13 224.98 Z" fill="currentColor"/>
    <path opacity="1.00" d=" M 369.34 139.56 C 382.01 137.94 395.04 139.70 407.08 143.88 C 417.68 147.80 427.49 155.06 432.80 165.20 C 442.84 180.98 441.06 201.37 434.13 218.08 C 423.27 248.42 392.40 269.85 360.12 269.11 C 357.31 291.24 352.38 313.67 341.32 333.30 C 333.57 346.02 320.06 355.58 305.08 357.26 C 292.02 359.40 276.91 356.45 267.70 346.29 C 260.47 336.99 257.94 324.40 260.96 312.99 C 265.42 297.46 277.47 281.30 295.00 281.00 C 297.20 280.73 303.39 281.16 303.04 284.86 C 281.16 284.01 264.72 306.36 266.14 326.94 C 267.58 334.16 269.76 342.52 276.61 346.45 C 283.84 352.00 293.60 351.91 302.11 350.26 C 316.27 346.52 325.33 333.52 330.56 320.67 C 337.31 303.60 341.71 285.45 343.89 267.28 C 335.59 264.85 326.12 259.49 324.95 250.02 C 322.59 243.27 325.13 234.10 331.99 231.00 C 334.26 229.02 340.13 229.96 338.92 233.74 C 335.17 234.33 330.93 236.49 330.99 240.99 C 327.06 250.73 336.96 259.35 345.82 261.02 C 349.38 238.96 352.59 216.80 358.24 195.16 C 362.87 183.17 367.20 168.54 380.31 163.30 C 383.65 163.84 390.44 160.56 390.90 165.90 C 387.83 167.68 383.90 167.63 381.17 170.17 C 375.05 175.51 373.15 183.89 370.30 191.17 C 366.24 214.64 363.84 238.39 360.96 262.00 C 385.30 263.82 406.84 246.01 417.04 225.02 C 427.54 204.50 429.60 176.63 413.72 158.25 C 403.35 147.37 387.36 144.72 373.00 145.09 C 357.67 146.08 341.98 149.40 328.99 157.99 C 298.89 176.79 283.25 216.66 294.36 250.70 C 297.85 261.18 306.87 271.45 318.77 271.25 C 321.51 272.52 317.76 274.52 316.70 275.67 C 310.26 279.24 303.00 275.70 297.00 272.99 C 287.74 266.69 282.57 255.86 280.94 245.01 C 277.04 222.44 283.96 199.16 296.21 180.21 C 312.50 156.17 340.34 140.80 369.34 139.56 Z" fill="currentColor"/>
  </g>
</svg>
